<svg width="400" height="400" xmlns="http://www.w3.org/2000/svg">
    <defs>
        <radialGradient id="flowerGrad" cx="50%" cy="50%" r="50%">
            <stop offset="0%" style="stop-color:#ff9ecd"/>
            <stop offset="100%" style="stop-color:#ff5e9c"/>
        </radialGradient>
    </defs>
    <rect width="100%" height="100%" fill="#fff"/>
    <circle cx="200" cy="200" r="150" fill="#f0f0f0"/>
    <g transform="translate(200 200)">
        <g transform="rotate(0)"><path d="M0,-80 C20,-60 20,-40 0,-20 C-20,-40 -20,-60 0,-80" fill="url(#flowerGrad)"/></g>
        <g transform="rotate(60)"><path d="M0,-80 C20,-60 20,-40 0,-20 C-20,-40 -20,-60 0,-80" fill="url(#flowerGrad)"/></g>
        <g transform="rotate(120)"><path d="M0,-80 C20,-60 20,-40 0,-20 C-20,-40 -20,-60 0,-80" fill="url(#flowerGrad)"/></g>
        <g transform="rotate(180)"><path d="M0,-80 C20,-60 20,-40 0,-20 C-20,-40 -20,-60 0,-80" fill="url(#flowerGrad)"/></g>
        <g transform="rotate(240)"><path d="M0,-80 C20,-60 20,-40 0,-20 C-20,-40 -20,-60 0,-80" fill="url(#flowerGrad)"/></g>
        <g transform="rotate(300)"><path d="M0,-80 C20,-60 20,-40 0,-20 C-20,-40 -20,-60 0,-80" fill="url(#flowerGrad)"/></g>
    </g>
    <circle cx="200" cy="200" r="30" fill="#ffef9c"/>
</svg> 